<?xml version="1.0" encoding="UTF-8"?>
<svg id="Layer_1" xmlns="http://www.w3.org/2000/svg" viewBox="0 0 1650 818.96">
  <path d="M806.85,324.7c-7.71,3.37-16.23,5.66-25.58,6.85-9.36,1.21-19.26,2.29-29.7,3.25-3.3,21.17-5.92,44.86-7.84,71.07-1.93,26.22-4.27,52.2-7.01,77.93-2.76,25.74-7.71,48.47-14.85,68.19-.55,2.89-.28,5.05.83,6.49,1.1,1.44,2.19,2.65,3.3,3.61,1.1.97,2.19,2.16,3.3,3.61,1.1,1.44,1.37,3.61.82,6.49-36.85,3.37-73.42,6.02-109.72,7.94-36.3,1.93-69.03,5.3-98.17,10.1-3.3.97-4.68,3.13-4.12,6.49.54,1.44.83,2.89.83,4.33s-.55,2.89-1.65,4.33c-3.85.97-7.57,1.21-11.14.72-3.58-.47-7.01-1.19-10.31-2.16-3.3-.47-6.06-.96-8.25-1.44-2.76-5.77-6.06-10.82-9.9-15.15-3.85-4.33-7.71-8.41-11.55-12.27-5.5-5.29-10.31-10.7-14.44-16.23-4.12-5.52-5.36-12.86-3.71-22.01,1.1-2.89,2.75-4.08,4.95-3.61,2.19.97,4.12,1.44,5.77,1.44,0-1.44-.28-3.84-.82-7.22-.55-5.29-.83-10.7-.83-16.23s2.19-9.49,6.6-11.91c-1.11-2.4-3.03-3.97-5.77-4.69-2.76-.72-4.41-2.53-4.95-5.41,0-3.84.27-7.58.83-11.18.54-3.61.82-7.33.82-11.18,1.65-20.68,2.6-41.24,2.89-61.69.27-20.44-2.47-38.96-8.25-55.56-5.77-16.6-16.91-29.94-33.41-40.05-1.65,14.43-3.03,29.11-4.12,44.01-1.11,14.92-1.93,30.07-2.48,45.46-2.2,34.16-5.23,67.59-9.07,100.29-3.85,32.72-11.14,62.9-21.86,90.55-10.72,27.67-27.37,50.62-49.91,68.91-19.8,5.29-37.68,5.41-53.62.36-15.96-5.05-30.53-13.35-43.73-24.89-13.2-11.54-25.16-24.41-35.89-38.6-10.73-14.18-20.5-27.78-29.29-40.77-9.9,9.14-18.43,19.73-25.58,31.75-7.15,12.03-14.72,23.7-22.69,35-7.98,11.31-17.74,21.04-29.29,29.22-8.8-1.44-15.67-1.8-20.62-1.08s-9.63,2.76-14.03,6.13c-2.2-.48-3.17-1.57-2.89-3.25.27-1.69.68-3.25,1.24-4.69.54-1.44.68-2.29.41-2.53-.28-.25-1.52.83-3.71,3.25-3.3-.97-3.03-2.16.83-3.61,2.75-1.93,4.12-3.37,4.12-4.33-.55-2.89-1.93-3.37-4.12-1.44-2.2,1.44-4.12,1.92-5.77,1.44,29.7-41.37,57.2-88.27,82.5-140.7,25.29-52.42,43.72-105.82,55.27-160.18,1.65-6.73,2.19-13.95,1.65-21.65-.55-7.69,0-14.9,1.65-21.65-9.36-2.89-17.61-2.89-24.75,0-7.15,2.89-14.03,6.26-20.62,10.1-4.95,2.89-10.04,5.66-15.26,8.3-5.23,2.65-10.87,4.22-16.91,4.69-15.96-8.17-29.98-17.92-42.08-29.22-12.1-11.3-22-25.13-29.7-41.49,8.79-2.89,18.83-4.33,30.11-4.33s22.96.48,35.06,1.44c16.5.97,32.72,1.33,48.67,1.08,15.95-.24,30.24-3.97,42.9-11.18-.55-9.13-.7-18.28-.41-27.42.27-9.13.41-18.04.41-26.7.54-14.91.68-29.22.41-42.93-.28-13.71-2.06-26.09-5.36-37.16-1.11-4.33-2.62-8.54-4.54-12.63-1.93-4.08-3.71-7.81-5.36-11.18-2.76-6.25-5.09-12.14-7.01-17.68-1.93-5.52-1.79-11.18.41-16.96,19.25,1.93,36.71,7.7,52.39,17.32,15.67,9.63,27.91,21.77,36.71,36.44,8.79,14.68,12.09,30.67,9.9,47.98-1.65,13.96-5.36,27.9-11.14,41.85-5.77,13.96-9.22,28.62-10.31,44.01,8.79,1.44,16.77,1.69,23.92.72,7.14-.96,14.3-2.17,21.45-3.61,4.95-.96,9.9-1.92,14.85-2.89,4.95-.96,10.44-1.68,16.5-2.16,11.55-10.1,24.05-15.27,37.54-15.51,13.47-.24,26.94,2.77,40.42,9.02,13.47,6.26,25.99,14.07,37.54,23.45s21.17,18.16,28.88,26.34c-1.11,6.26-5.23,10.59-12.38,12.99-7.15,2.41-14.44,4.69-21.86,6.85-7.43,2.17-11.96,6.62-13.61,13.35h-.82c1.65,0,3.84.25,6.6.72,7.14.48,14.3.48,21.45,0,7.14-.47,12.09-3.36,14.85-8.66,30.8-.47,62.7-3.12,95.7-7.94,33-4.8,63.24-8.9,90.75-12.27,3.3-4.33,7.7-8.41,13.2-12.27,2.75,1.44,5.22,1.57,7.43.36,2.19-1.19,4.12-2.28,5.77-3.25,1.65-1.44,2.75-2.16,3.3-2.16,15.39-2.89,30.79-.36,46.2,7.58,15.39,7.94,30.53,16.48,45.38,25.61,4.39,3.37,9.07,6.49,14.02,9.38,4.95,2.89,9.62,5.54,14.03,7.94,0,4.33,1.24,7.7,3.71,10.1,2.47,2.41,3.71,5.77,3.71,10.1ZM333.3,276.36c-7.15-1.92-14.44-2.76-21.86-2.53-7.42.25-14.99.61-22.69,1.08-6.06.97-11.96,1.57-17.74,1.8-5.77.25-11.69.12-17.74-.36-6.6,22.13-12.93,45.71-18.97,70.71-6.06,25.02-12.79,49.31-20.21,72.88-7.42,23.57-17.2,44.01-29.29,61.33,3.84,3.37,5.22,6.74,4.12,10.1-1.11,3.37-3.03,6.98-5.78,10.82-2.2,3.37-4.12,7.1-5.78,11.18-1.65,4.09-1.93,8.55-.82,13.35,9.35,13.96,22.82,26.7,40.42,38.24,17.6,11.54,34.37,17.32,50.33,17.32-.55-1.92.95-3.72,4.54-5.41,3.57-1.68,7.28-3.25,11.14-4.69,2.75-.47,5.22-1.2,7.42-2.17,2.19-.96,4.12-1.92,5.78-2.89,6.6-10.58,13.2-22.6,19.8-36.08,6.6-13.46,11.68-27.78,15.26-42.93,3.57-15.15,3.43-29.94-.41-44.38,6.05-25.01,9.35-52.91,9.9-83.7.54-30.78-1.93-58.68-7.42-83.7ZM660.83,316.76c-6.6,1.93-14.58,3.25-23.93,3.97-9.36.72-18.97,1.08-28.88,1.08-18.15.97-35.62,2.65-52.39,5.05-16.78,2.41-27.92,9.14-33.41,20.2-1.65,3.37-2.62,7.82-2.89,13.35-.28,5.54-.14,10.95.41,16.23v18.76c-.55,21.17-.7,44.62-.41,70.35.27,25.74,2.06,51.12,5.36,76.12,24.75.48,47.57-.72,68.48-3.61,20.9-2.89,40.7-6.73,59.4-11.54,3.84-21.16,6.87-44.01,9.07-68.55,2.19-24.53,3.43-48.94,3.71-73.24.27-24.28-1.24-47.01-4.54-68.19Z"/>
  <path d="M1012.28,415.61c-41.8-9.13-74.39-26.34-97.76-51.59-23.38-25.25-41.39-55.43-54.04-90.55,17.6,5.3,36.3,11.43,56.1,18.4,19.8,6.98,37.4,15.51,52.8,25.61,17.6,11.07,30.94,24.42,40.01,40.05,9.08,15.64,10.03,35,2.89,58.08ZM1060.95,535.39c0,9.14-2.47,18.29-7.42,27.42-4.95,9.14-10.45,18.29-16.5,27.42-6.06,10.59-11.83,21.17-17.33,31.75-5.5,10.59-7.98,21.65-7.42,33.19-2.2,1.44-3.85,3.48-4.95,6.13-1.11,2.64-3.03,4.69-5.78,6.13-30.25-6.74-54.04-18.76-71.36-36.08-17.33-17.32-33.14-36.08-47.44-56.28,28.05,0,55.55,5.77,82.5,17.32,9.35-9.13,17.04-19.48,23.1-31.03,6.04-11.54,12.38-23.09,18.97-34.63,6.6-11.54,14.85-21.16,24.75-28.86-4.41-5.29-2.47-9.38,5.78-12.27,1.1,6.26,5.22,12.88,12.38,19.84,7.14,6.98,10.72,16.96,10.72,29.94ZM1075.8,215.02c-8.8,3.37-15.82,3.37-21.04,0-5.23-3.36-10.04-7.45-14.44-12.27-2.2-1.92-4.12-3.72-5.78-5.41-1.65-1.68-3.3-3-4.95-3.97-1.65-.96-4-1.32-7.01-1.08-3.03.25-5.36-.11-7.01-1.08-8.8-5.29-16.23-11.91-22.28-19.84-6.06-7.94-12.66-14.31-19.8-19.12,0-9.13-.83-17.32-2.47-24.53-1.65-7.22-2.48-15.15-2.48-23.81,14.3,2.89,30.8,7.7,49.5,14.43,18.69,6.74,34.1,16.36,46.2,28.86,7.7,8.19,13.47,18.04,17.33,29.58,3.84,11.54,1.92,24.29-5.78,38.24ZM1626.08,343.46c-11.55,3.37-24.62,7.94-39.19,13.71-14.58,5.77-29.02,10.82-43.31,15.15-2.2,30.3-4.82,61.69-7.84,94.16-3.03,32.47-7.01,64.22-11.96,95.24-4.95,31.03-11.28,59.78-18.97,86.23-2.21-.49-3.03-1.8-2.48-3.97.54-2.17-.55-3.25-3.3-3.25-7.71,3.36-13.75,3.61-18.15.72-4.41-2.89-9.07-6.73-14.02-11.54-1.11-.96-2.2-2.04-3.3-3.25-1.11-1.2-2.21-2.28-3.3-3.25-18.7-.96-39.19-1.32-61.46-1.08-22.28.25-43.6.61-63.94,1.08h-18.15c-3.3.49-5.92,1.69-7.84,3.61-1.93,1.93-4.82,3.13-8.66,3.61-2.76.48-4.41-.11-4.95-1.8-.55-1.68-.82-3.48-.82-5.41-6.6,1.44-13.9,2.29-21.86,2.53-7.98.25-16.09.61-24.34,1.08-14.31,0-28.33.72-42.08,2.16-13.75,1.44-25.86,5.3-36.3,11.54-4.41,0-10.46-2.53-18.15-7.58-7.71-5.05-15.4-10.82-23.1-17.32-7.71-6.49-14.03-11.91-18.98-16.23,2.75-5.29,3.02-10.1.83-14.43-2.2-4.33-4.68-8.41-7.42-12.27-2.2-3.36-3.85-5.77-4.95-7.22,2.75-9.13,5.63-20.68,8.66-34.63,3.02-13.95,4.54-27.17,4.54-39.69,0-11.54-2.06-21.4-6.19-29.58-4.12-8.17-11.96-12.27-23.51-12.27,14.3-2.4,24.47-3.12,30.53-2.16-.55-13.46-.83-27.29-.83-41.49s-1.11-27.29-3.3-39.32c-2.21-12.99-6.6-24.05-13.2-33.19-6.6-9.13-17.33-14.67-32.17-16.59-1.65-4.8-1.65-8.3,0-10.46,1.65-2.16,3.84-4.21,6.6-6.13,2.19-1.92,4.25-3.97,6.19-6.13,1.92-2.17,3.16-5.16,3.71-9.02,15.95,0,31.35-.83,46.2-2.53,14.85-1.68,29.7-3.25,44.55-4.69,17.04-2.4,33.82-4.33,50.33-5.77,16.5-1.44,33-1.92,49.5-1.44,4.95-24.05,6.19-48.1,3.71-72.16-2.47-24.05-6.33-46.18-11.55-66.38-5.23-20.2-10.04-36.08-14.44-47.62,3.84-2.89,5.49-6.49,4.95-10.82-.55-4.33,1.65-7.21,6.6-8.66,13.2,3.37,22.55,8.42,28.05,15.15,5.49,6.74,13.47,15.4,23.93,25.98,7.14,7.22,15.26,14.92,24.34,23.09,9.08,8.18,13.88,19.01,14.44,32.47,0,3.37-1.11,6.38-3.3,9.02-2.2,2.65-3.85,5.41-4.95,8.3-1.65,5.77-2.47,11.79-2.47,18.04s.27,12.99.83,20.2c.54,6.74.82,13.71.82,20.92s-.55,14.92-1.65,23.09c6.05,2.41,13.88,3.61,23.51,3.61s19.66-.24,30.11-.72c10.44-.47,20.62-.83,30.52-1.08,9.9-.24,18.69.61,26.4,2.53,2.75.48,4.67.25,5.78-.72,1.1-.96,1.92-2.17,2.47-3.61,1.65-3.36,3.57-5.05,5.78-5.05,36.84,6.26,70.12,15.51,99.83,27.78,29.7,12.27,50.6,32.11,62.7,59.53ZM1277.93,422.83c-2.21-10.1-3.3-21.04-3.3-32.83s.27-23.69.83-35.72c0-7.21.13-14.43.41-21.65.27-7.22.13-14.18-.41-20.92-18.7.97-37,2.65-54.86,5.05-17.88,2.41-34.79,4.09-50.74,5.05-4.41,10.1-6.33,24.3-5.78,42.57.54,18.29,1.37,34.88,2.47,49.79,0,4.33.13,8.19.41,11.54.27,3.37.41,6.49.41,9.38,19.25-1.44,39.6-3,61.05-4.69,21.45-1.68,37.95-4.21,49.5-7.58ZM1277.93,577.96c.54-13.46.54-25.98,0-37.52-.55-11.54-1.11-22.84-1.65-33.91,0-4.8-.14-9.49-.41-14.07-.28-4.57-.41-9.26-.41-14.07-4.95-1.44-11.28-1.92-18.97-1.44-7.71.49-16.23.97-25.58,1.44-9.9.97-20.21,1.69-30.94,2.16-10.73.49-20.77-.24-30.11-2.16-1.65,10.59-2.48,21.89-2.48,33.91v35.36c.54,7.7.83,14.92.83,21.65s-.28,12.75-.83,18.04c23.1-.47,42.9-1.32,59.4-2.53,16.5-1.2,33.54-3.48,51.15-6.85ZM1460.25,304.5c-17.61-2.4-37.82-3.36-60.64-2.89-22.83.48-42.22,2.16-58.16,5.05-1.11,7.21-1.79,17.44-2.06,30.67-.28,13.24-.55,26.82-.83,40.77-.28,13.96-1.24,25.74-2.89,35.36,38.49,5.3,69.02,16.6,91.57,33.91-1.65,7.21-7.57,12.39-17.74,15.51-10.18,3.13-22,5.05-35.47,5.77-13.48.72-26.27,1.57-38.36,2.53v18.76c0,15.4-.14,30.79-.41,46.18-.28,15.4-.97,30.07-2.06,44.01,7.7-.47,16.22-.72,25.58-.72h60.22c9.9,0,18.15-.47,24.75-1.44,7.14-32.71,11.41-64.69,12.79-95.97,1.37-31.26,2.06-64.22,2.06-98.85.54-12.5.83-25.25.83-38.24s.27-26.45.82-40.41Z"/>
</svg>